<svg width="137" height="39" viewBox="0 0 137 39" fill="none" xmlns="http://www.w3.org/2000/svg">
<g clip-path="url(#clip0_148_475)">
<path d="M7.24626 0.24093C4.45563 1.40986 1.38825 4.70803 0.419394 8.85112C-0.80777 14.0988 4.29802 16.3185 4.71714 15.5917C5.20998 14.7366 3.80224 14.4476 3.51241 11.7246C3.13791 8.20761 4.77297 4.27796 6.83089 2.55368C7.21287 2.23314 7.19498 2.67923 7.19498 3.50384C7.19498 4.97863 7.1135 18.2183 7.1135 20.9815C7.1135 24.7201 6.95911 25.9008 6.68156 27.0676C6.40082 28.2496 5.94885 29.0486 6.29103 29.3563C6.67355 29.7004 8.30674 28.8816 9.25209 27.5623C10.3858 25.9799 10.7827 24.079 10.854 22.0155C10.94 19.5275 10.9363 15.5794 10.94 13.3276C10.9433 11.2624 10.9748 5.21503 10.9037 1.57948C10.8864 0.687293 8.41333 -0.248173 7.24626 0.24093Z" fill="black"/>
<path d="M106.334 17.7383C106.244 19.6822 105.813 21.2013 105.279 22.273C104.246 24.3478 102.101 24.9918 101.19 22.0096C100.693 20.3839 100.67 17.6689 101.027 15.4002C101.39 13.0893 102.405 11.3439 104.084 11.5013C105.741 11.657 106.516 13.7916 106.334 17.7386V17.7383ZM78.4059 29.7979C78.3835 33.0274 77.8751 35.8589 76.7853 36.6817C75.2392 37.8479 73.1612 36.9728 73.5915 34.6163C73.9722 32.5308 75.7729 30.4011 78.4104 27.7987C78.4104 27.7987 78.4158 28.3923 78.4059 29.7979ZM77.9838 17.7194C77.8893 19.4899 77.4304 21.2681 76.9295 22.273C75.8957 24.3478 73.7353 24.9963 72.8399 22.0096C72.2276 19.9688 72.3743 17.328 72.6769 15.6639C73.0701 13.5047 74.0232 11.5015 75.7341 11.5015C77.3978 11.5015 78.2184 13.3268 77.9838 17.7194ZM61.8055 17.6927C61.704 19.5673 61.3383 21.1345 60.7515 22.273C59.6894 24.3336 57.5882 24.987 56.6618 22.0096C55.9937 19.8628 56.221 16.9356 56.4989 15.3543C56.9113 13.0076 57.944 11.3439 59.5561 11.5015C61.212 11.6634 62.0168 13.7916 61.8055 17.6927ZM135.946 19.8825C135.542 19.8825 135.357 20.2998 135.204 21.0018C134.674 23.4444 134.117 23.9954 133.398 23.9954C132.596 23.9954 131.874 22.7864 131.689 20.3658C131.543 18.4622 131.567 14.9581 131.753 11.4724C131.791 10.7563 131.593 10.0476 129.672 9.34987C128.846 9.04962 127.644 8.60753 127.046 10.0516C125.356 14.1316 124.695 17.3708 124.539 18.6861C124.531 18.7542 124.447 18.7684 124.433 18.6092C124.333 17.5554 124.112 15.6401 124.084 11.6167C124.079 10.8316 123.913 10.1635 123.046 9.61646C122.484 9.26118 120.777 8.63344 120.162 9.38059C119.629 9.99123 119.012 11.6351 118.372 13.584C117.851 15.1681 117.488 16.2392 117.488 16.2392C117.488 16.2392 117.495 11.9658 117.501 10.3446C117.504 9.73319 117.084 9.52937 116.958 9.49251C116.389 9.32743 115.267 9.05149 114.791 9.05149C114.203 9.05149 114.059 9.37952 114.059 9.8582C114.059 9.92098 113.967 15.4846 113.967 19.375C113.967 19.5441 113.967 19.7284 113.967 19.9245C113.643 21.7126 112.589 24.1397 111.443 24.1397C110.295 24.1397 109.754 23.1252 109.754 18.4871C109.754 15.7814 109.835 14.6047 109.875 12.6478C109.898 11.5205 109.943 10.655 109.941 10.4587C109.932 9.85633 108.891 9.55261 108.406 9.44042C107.919 9.32743 107.496 9.28335 107.165 9.30232C106.698 9.32903 106.367 9.63542 106.367 10.0575C106.367 10.284 106.369 10.7141 106.369 10.7141C105.767 9.76738 104.798 9.10865 104.154 8.91766C102.417 8.40211 100.606 8.8589 99.2391 10.7712C98.153 12.2904 97.4983 14.0114 97.2405 16.4837C97.0522 18.2913 97.1136 20.124 97.4486 21.6741C97.0439 23.4233 96.293 24.1397 95.4705 24.1397C94.2765 24.1397 93.411 22.1913 93.5115 18.8207C93.5777 16.6039 94.0214 15.0481 94.5062 12.7974C94.713 11.8379 94.545 11.3357 94.1237 10.8543C93.7372 10.4128 92.9136 10.187 91.7303 10.4643C90.8872 10.6622 89.6817 10.8751 88.5788 11.0386C88.5788 11.0386 88.6455 10.7728 88.7 10.3048C88.9869 7.84997 86.3192 8.04898 85.4678 8.83298C84.96 9.30125 84.6141 9.85339 84.483 10.846C84.2746 12.4215 85.5595 13.1647 85.5595 13.1647C85.1382 15.0944 84.1047 17.6149 83.0378 19.4375C82.4664 20.4138 82.0294 21.1375 81.465 21.9065C81.4466 18.8202 81.4667 15.7338 81.5254 12.648C81.5486 11.5208 81.5938 10.6783 81.5913 10.4817C81.5849 10.0414 81.3277 9.87476 80.7926 9.66427C80.3193 9.47782 79.7599 9.34907 79.1795 9.30365C78.447 9.24702 78.0058 9.63516 78.0175 10.0946C78.0196 10.1814 78.0196 10.7141 78.0196 10.7141C77.4173 9.76738 76.4484 9.10865 75.8039 8.91766C74.0676 8.40211 72.2559 8.8589 70.8893 10.7712C69.8035 12.2904 69.0924 14.4225 68.8907 16.465C68.7032 18.3682 68.7376 19.9856 68.9935 21.3485C68.7176 22.713 67.9237 24.14 67.0265 24.14C65.8789 24.14 65.226 23.1252 65.226 18.4871C65.226 15.7814 65.3072 14.6047 65.3473 12.6478C65.3706 11.5208 65.4152 10.655 65.4128 10.4587C65.4042 9.85633 64.3627 9.55288 63.8779 9.44042C63.3709 9.32289 62.9331 9.28015 62.5967 9.30499C62.1533 9.33785 61.8413 9.73506 61.8413 10.0313V10.7141C61.239 9.76738 60.2701 9.10865 59.6255 8.91766C57.8892 8.40211 56.0877 8.86637 54.711 10.7712C53.8135 12.0131 53.0866 13.3898 52.7127 16.4377C52.6045 17.3184 52.5566 18.1436 52.5631 18.9142C52.2051 21.1036 50.6237 23.6268 49.3306 23.6268C48.5738 23.6268 47.8529 22.1587 47.8529 19.0304C47.8529 14.8633 48.1109 8.92995 48.1547 8.35831C48.1547 8.35831 49.7887 8.33053 50.105 8.32679C50.9203 8.3177 51.6583 8.3372 52.7442 8.28137C53.2886 8.25386 53.8132 6.29932 53.2512 6.05757C52.9963 5.94805 51.1962 5.85242 50.4824 5.8372C49.8825 5.82384 48.2119 5.69989 48.2119 5.69989C48.2119 5.69989 48.3617 1.7617 48.3967 1.34578C48.4261 0.998792 47.9774 0.820353 47.7204 0.712168C47.0948 0.447716 46.5352 0.320833 45.8719 0.184065C44.9551 -0.0050578 44.5395 0.180059 44.4583 0.953381C44.3359 2.12739 44.2726 5.56607 44.2726 5.56607C43.6 5.56607 41.3022 5.43464 40.6296 5.43464C40.0045 5.43464 39.3298 8.12297 40.1942 8.15609C41.1884 8.19456 42.9212 8.22822 44.0699 8.26241C44.0699 8.26241 44.0186 14.2935 44.0186 16.1559C44.0186 16.3536 44.0197 16.5446 44.0207 16.7297C43.3884 20.0246 41.1617 21.8048 41.1617 21.8048C41.6399 19.6248 40.663 17.9876 38.9034 16.6017C38.2551 16.0913 36.9753 15.1245 35.5436 14.0651C35.5436 14.0651 36.3727 13.2477 37.1084 11.6033C37.6293 10.4381 37.652 9.10545 36.3727 8.81135C34.2592 8.32518 32.5168 9.87744 31.997 11.5347C31.5941 12.8185 31.8089 13.7708 32.598 14.7602C32.6554 14.8326 32.7182 14.9066 32.7823 14.9808C32.3055 15.9003 31.65 17.1384 31.0949 18.0984C29.5541 20.7643 28.3903 22.8725 27.5106 22.8725C26.8076 22.8725 26.8169 20.7317 26.8169 18.7275C26.8169 16.9997 26.9446 14.402 27.0466 11.7128C27.0803 10.8233 26.6353 10.3166 25.89 9.85767C25.437 9.57879 24.4702 9.03065 23.9103 9.03065C23.0721 9.03065 20.6541 9.14472 18.3697 15.7533C18.0817 16.5862 17.516 18.104 17.516 18.104L17.5648 10.1568C17.5648 9.97039 17.4655 9.79035 17.2381 9.66721C16.8532 9.45805 15.8251 9.03065 14.9107 9.03065C14.4753 9.03065 14.2576 9.23313 14.2576 9.63702L14.178 22.0705C14.178 23.0154 14.2026 24.1175 14.296 24.5994C14.389 25.0818 14.5399 25.4745 14.7264 25.708C14.9131 25.9412 15.1287 26.1193 15.4842 26.1925C15.8152 26.2606 17.6273 26.4933 17.7216 25.8009C17.8344 24.9707 17.8389 24.0732 18.7904 20.725C20.2719 15.5124 22.2032 12.9694 23.1114 12.066C23.2703 11.9084 23.4514 11.8988 23.4426 12.1571C23.4042 13.2998 23.2676 16.1559 23.176 18.5814C22.93 25.0738 24.111 26.2772 25.7989 26.2772C27.0902 26.2772 28.9104 24.9942 30.8614 21.7465C31.9486 19.9367 33.0307 18.1238 34.1078 16.3079C34.6989 16.8552 35.3627 17.4442 36.0257 18.0736C37.567 19.5364 38.073 20.9265 37.7372 22.245C37.4807 23.2528 36.5135 24.2917 34.7924 23.2822C34.2908 22.9876 34.0765 22.7597 33.5722 22.4277C33.3013 22.2495 32.8876 22.1961 32.6394 22.3831C31.9951 22.8687 31.6265 23.4868 31.416 24.2519C31.2114 24.9963 31.9569 25.3898 32.73 25.7341C33.3954 26.0304 34.8258 26.2988 35.7378 26.3293C39.2918 26.4482 42.1391 24.6133 44.1212 19.8801C44.4759 23.9679 45.9857 26.2809 48.6091 26.2809C50.363 26.2809 52.1215 24.0139 52.8906 21.7837C53.1112 22.6927 53.4382 23.4834 53.8602 24.152C55.8815 27.3548 59.8029 26.6656 61.7727 23.9458C62.3817 23.1054 62.4744 22.8035 62.4744 22.8035C62.7618 25.3714 64.8299 26.2687 66.0138 26.2687C67.3401 26.2687 68.7091 25.6417 69.6688 23.4812C69.7813 23.7158 69.9042 23.9399 70.0383 24.152C72.0596 27.3548 75.9812 26.6656 77.951 23.9458C78.0439 23.8181 78.1246 23.7027 78.1949 23.5985L78.2526 25.2854L76.4391 26.9488C73.3992 29.7348 71.0902 31.8478 70.9203 34.3088C70.7039 37.4467 73.2475 38.613 75.1745 38.7658C77.2172 38.9279 78.9698 37.7985 80.0452 36.2179C80.9919 34.8265 81.6116 31.832 81.566 28.8747C81.5481 27.6903 81.5179 26.1845 81.4947 24.5703C82.5618 23.3311 83.7641 21.7647 84.8711 19.9317C86.0774 17.9339 87.3703 15.2509 88.0322 13.1628C88.0322 13.1628 89.1555 13.1727 90.3543 13.0941C90.7376 13.069 90.848 13.1476 90.7769 13.4283C90.6914 13.7681 89.2623 19.2796 90.5667 22.9513C91.4592 25.4649 93.4714 26.2732 94.6644 26.2732C96.0611 26.2732 97.397 25.2186 98.1129 23.6527C98.1995 23.8272 98.2895 23.996 98.3881 24.1522C100.409 27.355 104.317 26.6613 106.301 23.9458C106.748 23.333 107.003 22.8035 107.003 22.8035C107.428 25.4614 109.495 26.2823 110.679 26.2823C111.912 26.2823 113.083 25.7766 114.032 23.5298C114.072 24.5193 114.134 25.3281 114.233 25.583C114.293 25.7392 114.643 25.9348 114.898 26.0293C116.026 26.4476 117.177 26.25 117.603 26.1639C117.897 26.1041 118.127 25.8674 118.159 25.2568C118.242 23.6527 118.191 20.9577 118.677 18.9546C119.493 15.5933 120.255 14.2895 120.616 13.6441C120.818 13.2822 121.046 13.2226 121.054 13.6054C121.071 14.3801 121.11 16.6541 121.426 19.71C121.659 21.957 121.968 23.2854 122.207 23.7061C122.888 24.9082 123.728 24.9651 124.412 24.9651C124.847 24.9651 125.758 24.8449 125.676 24.0798C125.636 23.7069 125.706 21.4022 126.511 18.0907C127.036 15.928 127.912 13.9743 128.228 13.2598C128.345 12.9964 128.399 13.2039 128.397 13.2445C128.331 14.7337 128.181 19.605 128.788 22.2693C129.611 25.8784 131.99 26.2823 132.819 26.2823C134.589 26.2823 136.036 24.936 136.524 21.3934C136.641 20.5407 136.468 19.8825 135.946 19.8825Z" fill="black"/>
</g>
<defs>
<clipPath id="clip0_148_475">
<rect width="136.767" height="39" fill="white"/>
</clipPath>
</defs>
</svg>
